{"title":"Club.Sandy.Spencer.Scott.Alexa.Nicole.Fitting.on.the.bustiere.XX","uid":10627089,"size":568201026,"categoryP":"porn","categoryS":"movies","magnet":"?xt=urn:btih:b85a664805e82292f50b676c3ad9b2c5648c9715&amp;dn=Club.Sandy.Spencer.Scott.Alexa.Nicole.Fitting.on.the.bustiere.XX&amp;tr=udp%3A%2F%2Ftracker.openbittorrent.com%3A80&amp;tr=udp%3A%2F%2Fopen.demonii.com%3A1337&amp;tr=udp%3A%2F%2Ftracker.coppersurfer.tk%3A6969&amp;tr=udp%3A%2F%2Fexodus.desync.com%3A6969","seeders":0,"leechers":4,"uploader":"XXXmegathor","files":1,"time":1406250046,"description":"Club.Sandy.Spencer.Scott.Alexa.Nicole.Fitting.on.the.bustiere.XXXmegathor\n\nSCREENIES &lt;a href=&quot;\nhttp://xxxtrapics.com/image/R1&quot; rel=&quot;nofollow&quot; target=&quot;_NEW&quot;&gt;\nhttp://xxxtrapics.com/image/R1&lt;/a&gt;\n\n\nDuration : 25mn 34s\nBit rate mode : Variable\nBit rate : 2 800 Kbps\nWidth : 960 pixels\nHeight : 540 pixels\nDisplay aspect ratio : 16:9\nFrame rate mode : Constant\nFrame rate : 29.970 fps\nColor space : YUV\nChroma subsampling : 4:2:0\nBit depth : 8 bits\nScan type : Progressive\nBits/(Pixel*Frame) : 0.180\nStream size : 512 MiB (95%)\nLanguage : English\nEncoded date : UTC 2011-11-22 15:55:36\nTagged date : UTC 2011-11-22 15:55:36\nColor primaries : BT.709-5, BT.1361, IEC 61966-2-4, SMPTE RP177\nTransfer characteristics : BT.709-5, BT.1361\nMatrix coefficients : BT.709-5, BT.1361, IEC 61966-2-4 709, SMPTE RP177\n\nAudio\nID : 2\nFormat : AAC\nFormat/Info : Advanced Audio Codec\nFormat profile : LC\nCodec ID : 40\nDuration : 25mn 34s\nBit rate mode : Variable\nBit rate : 157 Kbps\nMaximum bit rate : 194 Kbps\nChannel(s) : 2 channels\nChannel positions : Front: L R\nSampling rate : 48.0 KHz\nCompression mode : Lossy\nStream size : 28.8 MiB (5%)\nLanguage : English\nEncoded date : UTC 2011-11-22 15:55:36\nTagged date : UTC 2011-11-22 15:55:36\n\n\n","torrent":{"xt":"urn:btih:b85a664805e82292f50b676c3ad9b2c5648c9715","amp;dn":"Club.Sandy.Spencer.Scott.Alexa.Nicole.Fitting.on.the.bustiere.XX","amp;tr":["udp%3A%2F%2Ftracker.openbittorrent.com%3A80","udp%3A%2F%2Fopen.demonii.com%3A1337","udp%3A%2F%2Ftracker.coppersurfer.tk%3A6969","udp%3A%2F%2Fexodus.desync.com%3A6969"],"infoHash":"b85a664805e82292f50b676c3ad9b2c5648c9715","infoHashBuffer":{"type":"Buffer","data":[184,90,102,72,5,232,34,146,245,11,103,108,58,217,178,197,100,140,151,21]},"announce":[],"urlList":[]}}